<svg aria-hidden="true" style="position: absolute; width: 0; height: 0; overflow: hidden;" version="1.1" xmlns="http://www.w3.org/2000/svg" xmlns:xlink="http://www.w3.org/1999/xlink">
<defs>

<symbol id="pepper" viewBox="0 0 32 32">
<path fill="#ff5449" style="fill: var(--color15, #ff5449)" d="M3.299 1.25c-1.8 1.65-0.4 5.4-0.4 5.4-2.050 2.35-1.4 6.4-1.4 6.4l2.45-6.65c-0.3-3.6 1.050-4.65 1.050-4.65 0.25-0.55-1.050-1.1-1.7-0.5z"></path>
<path fill="#7abb66" style="fill: var(--color1, #7abb66)" d="M3.799 1.65c-1.5 1.35-0.1 4.9-0.1 4.9-2.050 2.35-1.35 4.5-1.4 5.8l9.95-5.9c-1.1-2.9-7.25-1.35-7.25-1.35-1.25-2.15 0-3.35 0-3.35s-0.4 0.15-1.2-0.1z"></path>
<path fill="#dd3730" style="fill: var(--color14, #dd3730)" d="M21.449 24c-4.85-4.65-5.4-8.4-5.4-12.6 0-3.3-2-5.65-4.15-6.050-1.1-0.2-4.5-0.35-3.35 0.65 1.1 1-4.050 0.2-4.050 2.35 0 1.55-1.3-0.3-2.85 3.55-1.55 4-0.050 6.75 2.2 9.25 4.4 4.8 14.7 13.55 25.35 8.050 5.5-2.75-3.050-0.7-7.75-5.2z"></path>
</symbol>

<symbol id="meat" viewBox="0 0 32 32">
<path fill="#ff897a" style="fill: var(--color13, #ff897a)" d="M30.257 5.438l-29.14 10.297c0 0-0.107 2.308 0.143 4.222s0.603 2.945 0.603 2.945 0.958 4.365 6.53 6.53c5.572 2.165 11.275-0.292 12.99-1.242 2.060-1.14 4.75-3.77 5.815-5.083s3.13-4.285 3.377-6.203c0.248-1.917 0.508-4.947 0.497-6.865-0.017-2.84-0.815-4.603-0.815-4.603z"></path>
<path fill="#ffdbc7" style="fill: var(--color6, #ffdbc7)" d="M16.023 7.43c-1.668 0.39-6.993 0.992-8.27 1.348s-3.037 1.045-3.588 1.48c-0.9 0.713-3.063 4.34-3.050 5.477 0.020 1.977 0.755 4.42 1.395 5.010 0.465 0.43 4.072 5.635 8.97 5.67s15.688-7.348 16.148-7.985c0.463-0.64 2.063-3.7 2.508-5.633 0.392-1.707 0.89-5.378 0.048-7.605-0.648-1.715-2.178-3.297-3.22-3.505-2.063-0.407-3.238-0.008-3.558 0.1s-0.867 3.435-2.235 3.94c-2.023 0.745-5.148 1.702-5.148 1.702z"></path>
<path fill="#dd3730" style="fill: var(--color14, #dd3730)" d="M22.297 5.65c1.455-0.86 1.608-3.993 1.608-3.993s-1.115 0.073-2.358 1.080c-1.242 1.007-2.677 2.805-3.385 3.32s-2.14 1.372-2.14 1.372c0 0 4.032-0.457 6.275-1.78zM23.99 9.313c0.768 2.36 3.555 3.105 4.348 2.893 0.792-0.215 1.285-1.95 1.22-4.478s-1.35-3.942-2.55-3.855c-1.028 0.072-2.465 1.078-3 2.612-0.311 0.916-0.317 1.908-0.017 2.828zM19.297 8.735c0.332 0.332-0.578 1.307-0.065 2.828 0.515 1.52 1.37 1.95 1.307 2.4s-3.62 4.948-6.125 5.89c-2.505 0.943-9.457 0.628-10.732-2.912-0.965-2.678 1.072-4.988 1.607-5.42 0.813-0.658 1.617-1.16 2.85-1.393 0.47-0.088 3.985-0.62 6.063-0.835 2.075-0.215 4.71-0.943 5.095-0.557z"></path>
<path fill="#ff5449" style="fill: var(--color15, #ff5449)" d="M13.385 10.555c0.175 0.813-2.207 1.607-4.047 2.955-1.362 0.998-2.4 2.828-3.578 2.1s0.482-3.54 1.115-4.027c0.748-0.578 6.318-1.928 6.51-1.027zM19.87 5.695c0.18 0.4 1.5-0.577 2.143-1.115 0.52-0.433 1.15-0.825 0.815-1.35-0.385-0.6-1.070-0.085-1.735 0.62-0.435 0.462-1.418 1.417-1.223 1.845z"></path>
<path fill="#dd3730" style="fill: var(--color14, #dd3730)" d="M10.023 22.423c0.995 0.315 0.648 3.802 1.393 3.77 0.863-0.035 0.232-2.96 1.025-3.665 0.793-0.708 1.79-0.592 3.225-1.3s3.012-2.037 4.125-3.345c1.115-1.308 2.358-2.785 2.935-3.235s3.6-1.35 4.648-0.62c1.050 0.727 0.665 3.812 0.665 3.812s-2.045 3.665-6.157 6.097c-4.112 2.433-6.453 3.398-11.458 2.825s-8.008-6.118-8.008-6.118c0 0 1.93 0.823 4.112 1.18s2.505 0.285 3.495 0.598z"></path>
<path fill="#fff" style="fill: var(--color12, #fff)" d="M21.895 7.368c-1.235 0.75-2.335 2.15-1.775 4.027s3.465 3.018 5.377 1.188c1.695-1.62 1.295-3.51 0.518-4.428-0.772-0.915-2.51-1.765-4.12-0.787z"></path>
<path fill="#ffb4a9" style="fill: var(--color16, #ffb4a9)" d="M24.485 8.207c-1.31-0.665-2.652 0.095-3.070 0.947-0.415 0.853-0.363 2.050 0.628 2.76 1.060 0.762 2.688 0.38 3.255-0.787s0.228-2.393-0.812-2.92z"></path>
</symbol>

<symbol id="fish" viewBox="0 0 32 32">
<path fill="#2d3132" style="fill: var(--color8, #2d3132)" d="M26.24 17.993c6.094-0.175 6.188 8.944 5.141 8.649-3.272-0.923-6.253-8.617-5.141-8.649zM14.775 14.469c-5.589-8.030 2.991-11.638 3.641-10.136 2.037 4.702-2.622 11.6-3.641 10.136z"></path>
<path fill="#2d3132" style="fill: var(--color8, #2d3132)" d="M26.24 17.988c6.094 0.177 6.188-8.941 5.141-8.646-3.272 0.921-6.253 8.615-5.141 8.646z"></path>
<path fill="#444748" style="fill: var(--color9, #444748)" d="M11.792 26.65c-4.342 0-7.856-4.055-7.856-9.065s3.515-9.065 7.856-9.065c4.334 0 15.030 4.056 15.030 9.065 0 5.010-10.698 9.065-15.030 9.065z"></path>
<path fill="#747778" style="fill: var(--color10, #747778)" d="M5.555 23.085c1.435 2.164 3.689 3.563 6.235 3.563 4.279 0 14.755-3.955 15.020-8.877-6.088 4.62-13.734 6.804-21.255 5.314z"></path>
<path fill="#a9acac" style="fill: var(--color11, #a9acac)" d="M10.452 26.65c3.015 0 5.458-4.055 5.458-9.065s-2.442-9.065-5.458-9.065c-3.015 0-10.446 4.056-10.446 9.065 0 5.010 7.433 9.065 10.446 9.065z"></path>
<path fill="#fff" style="fill: var(--color12, #fff)" d="M15.379 15.219c0 2.749-1.486 4.974-3.32 4.974s-3.322-2.225-3.322-4.974c0-2.748 1.488-4.973 3.322-4.973s3.32 2.224 3.32 4.973z"></path>
<path fill="#2d3132" style="fill: var(--color8, #2d3132)" d="M14.208 15.219c0 1.44-0.963 2.607-2.149 2.607s-2.149-1.167-2.149-2.607c0-1.438 0.963-2.605 2.149-2.605s2.149 1.167 2.149 2.605z"></path>
<path fill="#fff" style="fill: var(--color12, #fff)" d="M6.738 14.441c0 2.319-1.253 4.196-2.802 4.196s-2.801-1.877-2.801-4.196c0-2.318 1.254-4.194 2.801-4.194s2.802 1.877 2.802 4.194z"></path>
<path fill="#2d3132" style="fill: var(--color8, #2d3132)" d="M5.748 14.441c0 1.213-0.811 2.198-1.813 2.198-1 0-1.813-0.985-1.813-2.198 0-1.216 0.812-2.198 1.813-2.198s1.813 0.982 1.813 2.198zM12.61 23.367c-0.909-0.18-1.887-0.264-2.992-0.264-1.047 0-2.087 0.074-3.060 0.151-0.339 0.029-0.824 0.277-0.811 0.608 0.004 0.088 0.024 0.394 0.634 0.341 0.973-0.076 1.976-0.157 2.957-0.157 0.925 0 1.738 0.073 2.489 0.219l0.109 0.010c0.101 0 0.993-0.116 1.036-0.536 0.006-0.072 0-0.303-0.361-0.372z"></path>
</symbol>

<symbol id="cheese" viewBox="0 0 32 32">
<path fill="#ffb68a" style="fill: var(--color5, #ffb68a)" d="M10.482 5.388l-0.010 2.955 4.754-1.232-2.61-1.778-2.134 0.055zM29.556 20.873c0-1.012 0.676-1.841 1.556-1.989v-10.364c-3.556-0.855-30.222 6.392-30.222 6.392v3.143c1.39 0.261 2.444 1.477 2.444 2.944s-1.054 2.684-2.444 2.946v6.859l30.222-5.762v-2.179c-0.879-0.149-1.556-0.98-1.556-1.99z"></path>
<path fill="#ffdbc7" style="fill: var(--color6, #ffdbc7)" d="M13.854 1.993l-3.416 3.416c0.655 0.153 1.118 0.525 1.118 0.962 0 0.573-0.796 1.037-1.778 1.037-0.421 0-0.803-0.089-1.107-0.231l-7.782 7.781c11.704-2.588 19.593-4.699 30.311-6.423-4.322-5.762-14.465-6.542-17.347-6.542z"></path>
<path fill="#ffb68a" style="fill: var(--color5, #ffb68a)" d="M17.778 4.593c0 0.573-0.796 1.037-1.778 1.037s-1.778-0.464-1.778-1.037 0.796-1.037 1.778-1.037c0.981 0 1.778 0.464 1.778 1.037zM13.397 10.277c0 0.869-1.208 1.574-2.699 1.574s-2.699-0.705-2.699-1.574c0-0.868 1.208-1.574 2.699-1.574s2.699 0.706 2.699 1.574zM25.778 7.424c0 0.972-1.352 1.761-3.019 1.761s-3.019-0.788-3.019-1.761 1.352-1.761 3.019-1.761c1.667 0 3.019 0.788 3.019 1.761z"></path>
<path fill="#ff8d40" style="fill: var(--color7, #ff8d40)" d="M29.889 13.884c0 1.184-0.87 2.143-1.945 2.143s-1.945-0.959-1.945-2.143c0-1.184 0.87-2.143 1.945-2.143s1.945 0.959 1.945 2.143zM10.111 18.206c0 1.116-0.82 2.020-1.833 2.020s-1.833-0.905-1.833-2.020c0-1.116 0.82-2.020 1.833-2.020s1.833 0.905 1.833 2.020zM25.361 22.633c-0.447 0.535-1.204 0.64-1.692 0.233s-0.517-1.171-0.068-1.706c0.449-0.538 1.205-0.642 1.692-0.236s0.517 1.171 0.068 1.708zM16.753 16.075c-0.602 0.721-1.622 0.862-2.277 0.314-0.654-0.547-0.696-1.576-0.092-2.296 0.604-0.724 1.623-0.863 2.277-0.316s0.697 1.576 0.092 2.299zM17.529 24.977c-1.067 1.426-2.981 1.796-4.274 0.829s-1.478-2.908-0.412-4.333c1.067-1.427 2.981-1.797 4.274-0.831 1.293 0.967 1.478 2.908 0.412 4.335z"></path>
</symbol>

<symbol id="vegan" viewBox="0 0 32 32">
<path fill="#7abb66" style="fill: var(--color1, #7abb66)" d="M7.734 19.688c0-0.235-0.077-3.608-0.393-4.822s-0.902-1.765-1.060-3.53c-0.157-1.765 0.867-3.245 1.335-3.797 0.862-1.018 2.115-1.495 2.115-1.495s-0.293-1.792 1.098-2.627c1.57-0.942 2.748 0.585 2.982 0.703s5.020-2.507 5.020-2.507c0 0 0.863-0.652 2.55-0.627 2.33 0.032 3.288 1.447 3.725 1.96 0.668 0.785 1.23 2.683 1.192 3.82s-0.308 1.678-0.177 1.947c0.13 0.27 0.843 0.137 1.483 0.905 0.587 0.705 1.375 1.822 1.415 3.9 0.038 2.012-1.93 4.672-2.4 5.102-0.47 0.433-1.022 0.87-1.415 1.46-0.393 0.588-0.883 1.773-1.9 2.558-1.020 0.785-2.585 1.090-3.605 1.208s-2.050-0.085-2.76 0.382c-0.735 0.483-1.605 2.543-3.020 3.648-0.83 0.65-1.533 0.9-2.328 0.943-1.22 0.068-1.752-0.228-2.245-0.368-0.828-0.235-1.612-8.76-1.612-8.76z"></path>
<path fill="#94d77e" style="fill: var(--color2, #94d77e)" d="M5.607 25.508c0 0-1.66-1.212-1.2-3.508 0.41-2.050 1.61-2.912 2.155-4.817 0.54-1.89 0.22-2.718 0.082-3.613-0.15-0.977-0.23-1.053-0.117-1.102 0.117-0.053 1.207 2.945 1.207 3.012 0.022 0.868 0.27 2.328 0.088 3.212s-1.907 2.155-2.020 3.018c-0.112 0.862-0.455 2.792-0.25 3.312 0.205 0.522 1.202 0.708 1.202 0.708l-1.147-0.223z"></path>
<path fill="#7abb66" style="fill: var(--color1, #7abb66)" d="M10.412 25.477c0.227 0.023 2.020-0.228 3.245-1.837s1.203-3.517 1.18-3.45c-0.023 0.068-3.155 0.408-3.2 1.475-0.045 1.065-1.225 3.812-1.225 3.812z"></path>
<path fill="#ffede3" style="fill: var(--color3, #ffede3)" d="M6.57 26.183c0 0-1.725-0.565-1.57-2.935 0.15-2.312 2.018-3.36 2.357-5.958 0.165-1.257-0.185-2.237-0.495-3.29-0.338-1.148-0.612-2.258-0.425-1.885 0.293 0.582 0.508 0.963 1.188 2.603 0.408 0.982 0.735 2.167 0.582 3.365-0.247 1.947-2.085 3.537-2.242 5.145-0.185 1.885 0.763 2.692 0.763 2.692l-0.157 0.263z"></path>
<path fill="#ffede3" style="fill: var(--color3, #ffede3)" d="M7.51 27.957c-0.58-0.512-1.393-1.607-0.99-3.030 0.525-1.855 1.67-2.443 2.812-4.175s1.33-3.362 1.352-5.097c0.030-2.32 0.162-4.18 0.565-4.303s0.195 2.315 0.287 4.325c0.065 1.39 0.238 3.527 0.238 3.527s1.227-1.030 1.523-2.422c0.525-2.473-0.465-5.15-0.255-7.935 0.158-2.072 1.14-4.085 2.133-5.162 0.71-0.772 1.422-1.36 1.638-1.237s-1.238 1.607-1.885 3.34c-0.647 1.732-0.8 3.433-0.553 5.287s0.595 3.695 0.813 3.633c0.217-0.063 1.54-2.692 1.953-4.715 0.403-1.98 0.608-3.308 1.565-4.638s2.072-2.103 2.258-1.917c0.327 0.328-0.89 0.925-1.693 2.903-0.48 1.18-0.47 1.992-0.885 4.037-0.212 1.053-1.002 3.408-0.972 3.502s1.115-0.455 1.888-1.010 2.128-1.585 3.332-3.162c0.683-0.895 1.143-1.633 1.452-1.418 0.31 0.217-1.075 2.885-2.355 4.078-1.825 1.7-4.17 2.973-4.17 3.217s2.235 0.047 4.463-0.568c1.792-0.495 3.7-1.875 3.917-1.535s-2.010 1.602-3.46 2.165c-2.32 0.897-4.27 0.805-5.6 1.608-1.33 0.805-2.125 2.135-2.258 2.38-0.047 0.088 2.225-0.525 4.39-0.835s5.132-1.36 5.225-1.020-1.082 1.020-3.68 1.637c-2.597 0.618-4.575 1.205-5.997 2.103s-2.317 1.985-3.060 3.283c-0.742 1.297-0.755 3.342-1.838 3.808-0.713 0.305-1.625-0.19-2.152-0.653z"></path>
<path fill="#f6ffea" style="fill: var(--color4, #f6ffea)" d="M3.687 26.775c-0.32 0.16-0.192 0.632-0.002 0.92 0.288 0.442 0.775 0.945 1.943 1.857 0.907 0.708 1.362 1.030 1.888 1.257 0.41 0.178 0.823 0.188 0.89-0.087 0.018-0.070-1.473-1.038-2.41-1.783-1.615-1.28-2.237-2.2-2.308-2.165z"></path>
</symbol>

<symbol id="add-button" viewBox="0 0 32 32">
<path  d="M32 16c0 8.837-7.163 16-16 16s-16-7.163-16-16c0-8.837 7.163-16 16-16s16 7.163 16 16z"></path>
<path fill="#fff" style="fill: var(--color2, #fff)" d="M22.385 16.312c0 0.254-0.157 0.381-0.469 0.381l-11.88 0.029c-0.137 0-0.235-0.029-0.293-0.088s-0.088-0.147-0.088-0.264v-1.261c0-0.235 0.088-0.352 0.264-0.352h12.173c0.195 0 0.293 0.098 0.293 0.293v1.261zM15.463 22.091c-0.274 0-0.411-0.156-0.411-0.469l-0.029-11.88c0-0.156 0.029-0.254 0.088-0.293 0.059-0.059 0.147-0.088 0.264-0.088h1.261c0.235 0 0.352 0.088 0.352 0.264l0.029 12.173c0 0.196-0.098 0.293-0.293 0.293h-1.261z"></path>
</symbol>

<symbol id="phone" viewBox="0 0 30 32">
<path  d="M3.591 1.735c0.333-0.333 0.734-0.591 1.174-0.757s0.912-0.237 1.382-0.208c0.47 0.029 0.929 0.158 1.345 0.378s0.781 0.526 1.071 0.898l3.419 4.392c0.627 0.806 0.848 1.855 0.6 2.846l-1.042 4.171c-0.054 0.216-0.051 0.442 0.008 0.657s0.173 0.41 0.331 0.568l4.68 4.68c0.158 0.158 0.354 0.272 0.569 0.331s0.442 0.062 0.658 0.008l4.17-1.042c0.489-0.122 0.999-0.132 1.492-0.028s0.956 0.318 1.354 0.628l4.392 3.417c1.579 1.229 1.724 3.562 0.31 4.973l-1.97 1.97c-1.41 1.41-3.516 2.029-5.48 1.337-5.026-1.769-9.59-4.646-13.352-8.419-3.773-3.762-6.65-8.325-8.419-13.351-0.69-1.962-0.070-4.070 1.339-5.48l1.97-1.97z"></path>
</symbol>

<symbol id="burger" viewBox="0 0 32 32">
<path d="M30.921 27.342h-29.855c-0.283 0-0.554-0.169-0.754-0.469s-0.312-0.707-0.312-1.131c0-0.424 0.112-0.831 0.312-1.131s0.471-0.469 0.754-0.469h29.855c0.283 0 0.554 0.169 0.754 0.469s0.312 0.707 0.312 1.131c0 0.424-0.112 0.831-0.312 1.131s-0.471 0.469-0.754 0.469z"></path>
<path d="M30.921 17.742h-29.855c-0.283 0-0.554-0.169-0.754-0.469s-0.312-0.707-0.312-1.131c0-0.424 0.112-0.831 0.312-1.131s0.471-0.469 0.754-0.469h29.855c0.283 0 0.554 0.169 0.754 0.469s0.312 0.707 0.312 1.131c0 0.424-0.112 0.831-0.312 1.131s-0.471 0.469-0.754 0.469z"></path>
<path d="M30.921 8.142h-29.855c-0.283 0-0.554-0.169-0.754-0.469s-0.312-0.707-0.312-1.131c0-0.424 0.112-0.831 0.312-1.131s0.471-0.469 0.754-0.469h29.855c0.283 0 0.554 0.169 0.754 0.469s0.312 0.707 0.312 1.131-0.112 0.831-0.312 1.131c-0.2 0.3-0.471 0.469-0.754 0.469z"></path>
</symbol>

<symbol id="search" viewBox="0 0 32 32">
<path d="M23.485 20.686c1.937-2.643 2.804-5.92 2.429-9.175s-1.966-6.248-4.453-8.381c-2.487-2.133-5.688-3.247-8.962-3.121s-6.379 1.484-8.695 3.802-3.671 5.425-3.795 8.699c-0.124 3.274 0.993 6.474 3.127 8.96s5.128 4.075 8.383 4.448c3.255 0.373 6.53-0.497 9.172-2.435h-0.002c0.060 0.080 0.124 0.156 0.196 0.23l7.7 7.701c0.375 0.375 0.884 0.586 1.414 0.586s1.039-0.21 1.415-0.585c0.375-0.375 0.586-0.884 0.586-1.414s-0.21-1.040-0.585-1.415l-7.7-7.701c-0.071-0.072-0.148-0.139-0.23-0.2v0.002zM24.001 12.998c0 1.445-0.285 2.875-0.837 4.21s-1.363 2.547-2.384 3.569c-1.021 1.021-2.234 1.832-3.569 2.385s-2.765 0.837-4.209 0.837c-1.444 0-2.875-0.285-4.209-0.837s-2.547-1.363-3.569-2.385c-1.021-1.022-1.832-2.234-2.384-3.569s-0.837-2.765-0.837-4.21c0-2.918 1.159-5.716 3.222-7.779s4.861-3.222 7.778-3.222c2.917 0 5.715 1.159 7.778 3.222s3.222 4.861 3.222 7.779z"></path>
</symbol>

<symbol id="cart" viewBox="0 0 35 32">
<path  d="M14.936 29.037c0 0.586-0.175 1.159-0.503 1.646s-0.795 0.867-1.341 1.091-1.146 0.283-1.726 0.169c-0.579-0.114-1.112-0.396-1.529-0.811s-0.702-0.942-0.818-1.517c-0.115-0.575-0.056-1.17 0.17-1.712s0.609-1.004 1.1-1.33c0.491-0.326 1.069-0.499 1.66-0.499 0.791 0.004 1.549 0.317 2.108 0.872s0.875 1.306 0.879 2.091zM27.481 26.074c-0.591 0-1.168 0.174-1.66 0.499s-0.874 0.788-1.1 1.33c-0.226 0.541-0.285 1.137-0.17 1.712s0.4 1.103 0.818 1.517 0.95 0.697 1.529 0.811c0.579 0.114 1.18 0.056 1.726-0.169s1.012-0.604 1.341-1.091c0.328-0.487 0.503-1.060 0.503-1.646-0.004-0.785-0.32-1.536-0.879-2.091s-1.317-0.868-2.108-0.872zM34.845 8.193l-3.615 12.504c-0.252 0.865-0.779 1.625-1.504 2.167s-1.606 0.837-2.514 0.84h-14.995c-0.907-0.003-1.789-0.298-2.514-0.84s-1.252-1.303-1.504-2.167l-3.599-12.474c0-0.015-0.015-0.044-0.015-0.059l-1.329-4.607h-1.464c-0.475 0-0.931-0.187-1.267-0.521s-0.525-0.786-0.525-1.257c0-0.472 0.189-0.924 0.525-1.257s0.792-0.521 1.267-0.521h1.912c0.649 0.005 1.279 0.216 1.798 0.603s0.899 0.928 1.084 1.545l1.075 3.778h25.45c0.277 0.002 0.55 0.066 0.798 0.189s0.464 0.301 0.631 0.52c0.168 0.219 0.282 0.474 0.334 0.744s0.042 0.548-0.032 0.814zM30.737 9.482h-22.045l2.942 10.237c0.038 0.124 0.115 0.232 0.22 0.31s0.232 0.119 0.362 0.12h14.995c0.131-0.001 0.258-0.043 0.362-0.12s0.182-0.186 0.22-0.31l2.942-10.237z"></path>
</symbol>
</defs>
</svg>
